#!OML:ASF \\sashay\E\basketball\basketball\Project 1\Capture day 1\Session 1\Subject.ASF
:FULLY-SPECIFIED
:DEGREES
588
root 35.2806 15.2657 10.0533 -548.502 68.7522 -557.795
lowerback 7.33185 1.55459 -7.06545
upperback 4.65085 1.83015 1.23032
thorax 0.482409 0.836026 5.12434
lowerneck 4.12866 -4.35768 -18.4862
upperneck -9.9998 -5.63686 17.516
head -2.48689 -2.86668 8.70946
rclavicle 3.18055e-015 4.77083e-015
rhumerus -64.7128 -11.5115 -50.9499
rradius 81.2764
rwrist -19.115
rhand -27.005 387.382
rfingers 7.12502
rthumb -0.424879 -2.59711
lclavicle 3.18055e-015 4.77083e-015
lhumerus -68.1719 37.3496 12.6246
lradius 93.0354
lwrist 85.1714
lhand 25.9228 44.0794
lfingers 7.12502
lthumb 50.007 65.2985
rfemur -45.9762 -11.8496 11.8569
rtibia 31.4668
rfoot 0.907976 -1.90285
rtoes -51.9577
lfemur 26.0195 -5.25066 -26.251
ltibia 34.6617
lfoot 4.71602 4.86232
ltoes -26.0795
589
root 35.8161 15.2044 9.9709 -549.65 68.3834 -558.322
lowerback 7.82711 1.79709 -7.45765
upperback 4.83054 2.11197 1.22233
thorax 0.349844 0.976477 5.30576
lowerneck 4.01956 -4.4017 -18.3133
upperneck -10.4075 -5.62972 17.3741
head -2.59775 -2.84849 8.64202
rclavicle -4.49253e-014 -4.37326e-014
rhumerus -64.7606 -11.7491 -51.0339
rradius 83.6375
rwrist -18.7225
rhand -27.4725 386.692
rfingers 7.12502
rthumb -0.876432 -3.28615
lclavicle -4.49253e-014 -4.37326e-014
lhumerus -68.9784 38.6122 11.5063
lradius 93.2276
lwrist 85.0726
lhand 26.666 43.3751
lfingers 7.12502
lthumb 50.6861 64.23
rfemur -45.3915 -12.179 12.5003
rtibia 29.4838
rfoot 1.04165 -2.19552
rtoes -50.8387
lfemur 26.2243 -6.24255 -26.2865
ltibia 38.2063
lfoot 4.81069 2.81926
ltoes -24.9914
590
root 36.3344 15.1367 9.86832 -550.556 67.9102 -558.606
lowerback 8.3843 1.97711 -7.37565
upperback 5.00824 2.33544 1.12712
thorax 0.203021 1.09946 5.12677
lowerneck 4.18864 -4.47524 -18.3423
upperneck -11.1223 -5.66457 17.5798
head -2.81514 -2.8639 8.74747
rclavicle 3.97569e-016 -3.10104e-014
rhumerus -64.1311 -12.0651 -51.3595
rradius 85.5094
rwrist -18.6528
rhand -27.5745 387.979
rfingers 7.12502
rthumb -0.974964 -1.99885
lclavicle 3.97569e-016 -3.10104e-014
lhumerus -69.4596 39.7968 10.573
lradius 93.2021
lwrist 84.5937
lhand 29.0127 42.5949
lfingers 7.12502
lthumb 52.8171 62.2024
rfemur -45.1839 -13.567 13.6188
rtibia 28.6575
rfoot 1.73638 -1.08781
rtoes -49.033
lfemur 26.061 -7.09636 -26.3352
ltibia 42.3315
lfoot 4.82498 1.95177
ltoes -22.4842
591
root 36.8567 15.068 9.76757 -551.115 67.6558 -558.493
lowerback 8.92817 2.24131 -7.12835
upperback 5.14157 2.6798 1.06849
thorax 0.00592771 1.28741 4.87703
lowerneck 4.47967 -4.48448 -18.2912
upperneck -11.8176 -5.63955 17.642
head -3.06871 -2.85207 8.79681
rclavicle 2.18663e-014 -8.74653e-015
rhumerus -63.4518 -12.1325 -51.9375
rradius 87.2368
rwrist -18.9208
rhand -26.2424 388.475
rfingers 7.12502
rthumb 0.31158 -1.50423
lclavicle 2.18663e-014 -8.74653e-015
lhumerus -69.4428 40.8179 9.94323
lradius 93.2473
lwrist 85.1482
lhand 28.6434 42.2267
lfingers 7.12502
lthumb 52.4832 62.0408
rfemur -45.2559 -14.9369 15.1103
rtibia 28.9881
rfoot 2.67214 -0.592142
rtoes -48.2944
lfemur 25.6339 -7.4796 -26.0965
ltibia 46.8315
lfoot 4.53442 2.28419
ltoes -20.3998
592
root 37.3686 14.9607 9.66962 -550.929 67.5956 -557.471
lowerback 9.5234 2.53972 -6.49067
upperback 5.30881 3.10352 1.10637
thorax -0.17897 1.52056 4.49381
lowerneck 4.85043 -4.52463 -18.478
upperneck -12.6344 -5.6455 18.0107
head -3.34416 -2.86036 9.00124
rclavicle 1.43125e-014 3.4191e-014
rhumerus -62.5075 -12.1459 -52.6602
rradius 89.0827
rwrist -19.0904
rhand -25.7956 387.955
rfingers 7.12502
rthumb 0.743192 -2.02342
lclavicle 1.43125e-014 3.4191e-014
lhumerus -68.9114 41.7931 9.66439
lradius 93.144
lwrist 85.7558
lhand 27.9021 41.8608
lfingers 7.12502
lthumb 51.8113 62.0778
rfemur -45.6533 -16.5862 17.4032
rtibia 30.7877
rfoot 2.6164 1.10081
rtoes -45.0647
lfemur 25.0813 -7.25045 -25.1622
ltibia 51.6196
lfoot 3.92622 3.35432
ltoes -22.0598
593
root 37.8863 14.8915 9.56832 -550.442 67.5271 -556.054
lowerback 10.1449 2.79178 -5.68334
upperback 5.54374 3.49483 1.21391
thorax -0.288989 1.73828 4.08711
lowerneck 5.3567 -4.55773 -18.9339
upperneck -13.6252 -5.63968 18.655
head -3.67466 -2.86652 9.36534
rclavicle -1.63003e-014 -2.54444e-014
rhumerus -61.1502 -12.0903 -53.4433
rradius 91.0565
rwrist -18.6913
rhand -25.0151 388.203
rfingers 7.12502
rthumb 1.49694 -1.77131
lclavicle -1.63003e-014 -2.54444e-014
lhumerus -68.154 42.8968 9.64928
lradius 93.1423
lwrist 86.1584
lhand 27.2769 41.8708
lfingers 7.12502
lthumb 51.243 62.4156
rfemur -45.9188 -17.6873 19.1546
rtibia 33.7537
rfoot 2.03271 3.2599
rtoes -37.8798
lfemur 24.2714 -6.75888 -23.799
ltibia 56.578
lfoot 3.22209 5.16609
ltoes -23.0125
594
root 38.3909 14.8539 9.47997 -550.12 67.6787 -554.885
lowerback 10.9742 3.16192 -4.93503
upperback 5.67387 4.02814 1.23682
thorax -0.62177 2.03296 3.58828
lowerneck 5.39749 -4.64438 -18.6573
upperneck -13.9891 -5.71181 18.4697
head -3.79049 -2.8955 9.2703
rclavicle 5.28767e-014 3.65764e-014
rhumerus -59.5924 -12.0751 -54.5163
rradius 92.695
rwrist -18.0796
rhand -24.8073 388.607
rfingers 7.12502
rthumb 1.69772 -1.36622
lclavicle 5.28767e-014 3.65764e-014
lhumerus -67.1536 44.0434 9.88095
lradius 93.2875
lwrist 86.1776
lhand 26.7165 41.5619
lfingers 7.12502
lthumb 50.7322 62.3916
rfemur -46.1422 -17.6731 20.2989
rtibia 37.6823
rfoot 2.98812 3.11741
rtoes -6.56467
lfemur 22.962 -6.05283 -22.3769
ltibia 61.6463
lfoot 2.48814 7.65436
ltoes -20.9433
